<svg xmlns="http://www.w3.org/2000/svg" width="612.5" height="257.657" viewBox="0 0 612.5 257.657">
  <g id="Group_20" data-name="Group 20" transform="translate(-26.37 -140.352)">
    <g id="Group_11" data-name="Group 11" transform="translate(27.064 140.352)">
      <path id="Path_81" data-name="Path 81" d="M147.665,200.3a59.952,59.952,0,1,1-59.95-59.952A59.948,59.948,0,0,1,147.665,200.3Z" transform="translate(-27.761 -140.352)" fill="#c7d02c" fill-rule="evenodd"/>
    </g>
    <g id="Group_12" data-name="Group 12" transform="translate(170.268 299.831)">
      <path id="Path_82" data-name="Path 82" d="M330.411,462.99l-12.017,16.36h12.172v2.775H314.789v-2.558l11.956-16.241H314.789v-2.772h15.622Z" transform="translate(-314.789 -460.278)" fill="#c7d02c"/>
      <path id="Path_83" data-name="Path 83" d="M358.939,463.263a10.906,10.906,0,0,1,15.561,0,11.087,11.087,0,0,1,0,15.593,10.9,10.9,0,0,1-15.561,0,11.087,11.087,0,0,1,0-15.593Zm13.342,2.22a7.936,7.936,0,0,0-5.577-2.341,7.74,7.74,0,0,0-5.516,2.341,7.888,7.888,0,0,0,0,11.157,7.739,7.739,0,0,0,5.516,2.34,7.932,7.932,0,0,0,5.577-13.5Z" transform="translate(-335.306 -460)" fill="#c7d02c"/>
      <path id="Path_84" data-name="Path 84" d="M412.3,482.093v-21.6l2.4.032,10.507,15.193V460.522h3.083v21.57h-2.465l-10.415-15.068v15.068Z" transform="translate(-363.65 -460.246)" fill="#c7d02c"/>
      <path id="Path_85" data-name="Path 85" d="M458.556,482.093v-21.6l2.4.032,10.508,15.193V460.522h3.082v21.57h-2.465l-10.416-15.068v15.068Z" transform="translate(-386.828 -460.246)" fill="#c7d02c"/>
      <path id="Path_86" data-name="Path 86" d="M506.408,479.042h10.015v3.113H503.265v-21.54h13.128v3.113h-9.985V469.8h9.769v3.144h-9.769Z" transform="translate(-409.23 -460.308)" fill="#c7d02c"/>
      <path id="Path_87" data-name="Path 87" d="M548.824,460.555c4.654,0,7,3.6,7,7.21s-2.342,7.18-7,7.18h-4.745v7.18h-3.144v-21.57Zm0,11.309a4.086,4.086,0,0,0,0-8.165h-4.745v8.165Z" transform="translate(-428.106 -460.278)" fill="#c7d02c"/>
      <path id="Path_88" data-name="Path 88" d="M590.066,475.5h-7.734c-.833,1.972-1.912,4.561-2.589,6.348h-3.359L585.042,460h2.281l8.658,21.847h-3.326Zm-6.565-2.928h5.363l-2.65-7.611Z" transform="translate(-445.869 -460)" fill="#c7d02c"/>
      <path id="Path_89" data-name="Path 89" d="M626.284,482.093v-21.6l2.4.032L639.2,475.715V460.522h3.079v21.57h-2.464L629.4,467.025v15.068Z" transform="translate(-470.872 -460.246)" fill="#c7d02c"/>
      <path id="Path_90" data-name="Path 90" d="M674.135,479.042H684.15v3.113H670.993v-21.54H684.12v3.113h-9.984V469.8H683.9v3.144h-9.767Z" transform="translate(-493.275 -460.308)" fill="#c7d02c"/>
      <path id="Path_91" data-name="Path 91" d="M712.207,479.042h10.141v3.113H709.1v-21.54h3.111Z" transform="translate(-512.368 -460.308)" fill="#c7d02c"/>
      <path id="Path_92" data-name="Path 92" d="M749.848,479.042h10.013v3.113H746.706v-21.54h13.125v3.113h-9.983V469.8h9.768v3.144h-9.768Z" transform="translate(-531.213 -460.308)" fill="#c7d02c"/>
      <path id="Path_93" data-name="Path 93" d="M784.5,482.093v-21.6l2.4.032,10.507,15.193V460.522h3.083v21.57h-2.465l-10.418-15.068v15.068Z" transform="translate(-550.151 -460.246)" fill="#c7d02c"/>
      <path id="Path_94" data-name="Path 94" d="M855.542,482.125h-3.109v-21.57h2.526l7.12,10.477,7.117-10.477h2.468v21.57h-3.085V466.934l-5.639,8.381h-1.756l-5.642-8.381Z" transform="translate(-584.191 -460.278)" fill="#c7d02c"/>
      <path id="Path_95" data-name="Path 95" d="M907.447,479.042h10.017v3.113H904.3v-21.54h13.129v3.113h-9.984V469.8h9.77v3.144h-9.77Z" transform="translate(-610.182 -460.308)" fill="#c7d02c"/>
      <path id="Path_96" data-name="Path 96" d="M945.114,482.217V463.45h-6.536v-2.9h16.146v2.9h-6.5v18.767Z" transform="translate(-627.356 -460.278)" fill="#c7d02c"/>
      <path id="Path_97" data-name="Path 97" d="M1021.946,468.165c-.86-3.482-4.19-4.748-6.935-4.748a7.483,7.483,0,0,0-7.486,7.828c0,4.561,3.265,7.919,7.486,7.919a7.044,7.044,0,0,0,6.781-4.374h-7.981v-3.113h11.618a15.226,15.226,0,0,1-.588,3.729v-.033a10.831,10.831,0,0,1-9.83,6.78c-6.039,0-10.6-4.558-10.6-10.908,0-6.378,4.653-10.938,10.6-10.938,4.132,0,9.124,2.126,10.265,7.859Z" transform="translate(-660.344 -460.153)" fill="#c7d02c"/>
      <path id="Path_98" data-name="Path 98" d="M1062.917,471.187h3.637a3.748,3.748,0,1,0,0-7.489h-4.777v18.427h-3.08v-21.57h7.858a6.679,6.679,0,0,1,7.023,6.871,6.5,6.5,0,0,1-5.573,6.6l6.807,8.1h-4.038l-7.857-9.461Z" transform="translate(-687.545 -460.278)" fill="#c7d02c"/>
      <path id="Path_99" data-name="Path 99" d="M1101.55,463.263a10.91,10.91,0,0,1,15.564,0,11.089,11.089,0,0,1,0,15.593,10.9,10.9,0,0,1-15.564,0,11.088,11.088,0,0,1,0-15.593Zm13.344,2.22a7.945,7.945,0,0,0-5.579-2.341,7.75,7.75,0,0,0-5.518,2.341,7.891,7.891,0,0,0,0,11.157,7.749,7.749,0,0,0,5.518,2.34,7.933,7.933,0,0,0,5.579-13.5Z" transform="translate(-707.412 -460)" fill="#c7d02c"/>
      <path id="Path_100" data-name="Path 100" d="M1157.809,479.042h10.013v3.113h-13.154v-21.54h13.123v3.113h-9.983V469.8h9.768v3.144h-9.768Z" transform="translate(-735.635 -460.308)" fill="#c7d02c"/>
      <path id="Path_101" data-name="Path 101" d="M1192.462,482.093v-21.6l2.4.032,10.509,15.193V460.522h3.082v21.57h-2.466l-10.417-15.068v15.068Z" transform="translate(-754.572 -460.246)" fill="#c7d02c"/>
    </g>
    <g id="Group_16" data-name="Group 16" transform="translate(170.268 217.558)">
      <g id="Group_15" data-name="Group 15">
        <g id="Group_14" data-name="Group 14">
          <g id="Group_13" data-name="Group 13" transform="translate(200.803)">
            <path id="Path_102" data-name="Path 102" d="M755.285,295.947c-.225,3.49-.97,7.079-2.043,7.97-7.75-.011-15.807-.3-22.153,1.109-6.887,8.872,4.465,14.457,11.084,19.92,4.091,3.38,11.563,7.578,13.3,12.184,2.308,6.217.342,14.5-2.708,22.77-9.849,1.654-25.061,1.629-35.5.474.418-2.711.451-5.813,1.658-7.742,7.93-1.308,20.423.215,26.664-2.769,6.346-10-5.127-14.048-12.172-19.934-3.808-3.191-11.873-8.486-13.283-12.175-2.436-6.418-1.209-14.521,2.2-21.5C732.8,294.452,744.573,295.085,755.285,295.947Z" transform="translate(-717.264 -295.098)" fill="#5b2e18" fill-rule="evenodd"/>
          </g>
          <path id="Path_103" data-name="Path 103" d="M352.975,297.633c-.2,3.492-1.136,6.188-2.207,7.088-7.76-.008-15.8-.3-22.14,1.109-6.9,8.862,4.441,14.464,11.071,19.919,4.075,3.385,11.564,7.579,13.276,12.192,2.322,6.2,1.543,14.976-2.73,22.774-9.854,1.636-25.025,1.61-35.456.464.421-2.7.446-5.828,1.657-7.742,7.925-1.308,20.421.207,26.67-2.768,6.337-10-5.127-14.04-12.172-19.932-3.813-3.185-11.879-8.49-13.291-12.181-2.434-6.412-1.214-14.517,2.21-21.493C330.32,295.251,342.273,296.75,352.975,297.633Z" transform="translate(-314.789 -295.654)" fill="#5b2e18" fill-rule="evenodd"/>
        </g>
      </g>
    </g>
    <g id="Group_17" data-name="Group 17" transform="translate(44.927 208.746)">
      <path id="Path_104" data-name="Path 104" d="M63.565,277.5a.094.094,0,0,0,.045-.011.21.21,0,0,0,.041-.055A.151.151,0,0,0,63.565,277.5Z" transform="translate(-63.565 -277.435)" fill="#5b2e18" fill-rule="evenodd"/>
    </g>
    <path id="Path_105" data-name="Path 105" d="M146.968,263.824a11.991,11.991,0,0,1-.471,5.118,17.121,17.121,0,0,1-.2,2.107c-.1.353-2.6,3.128-3.739,6.081a8.872,8.872,0,0,1-3.4,4.351s.765,4.113-.277,5.588c-1.023,1.454-2.579,4.094-2.579,4.094l-2.085,2.382s-8.209,8.069-8.583,8.4c-.393.316-3.207,3.268-3.207,3.268l-9.391,4.213-10.8,2.6L91.5,313.485l-.375,2.521-1.338,10.982.727,8.424c.906,6.3,1.5,19.407,1.5,19.407s.02,12.242.02,13.681-1.338,29.348-1.28,31.1c.1,4.158-.727,5.609-.727,5.609L88.214,426.9l.452.412-.471,2.067.414,2.536-1.161.751.058.473a5.442,5.442,0,0,0,4.094,2.008c2.756.138,1.614.433,4.015.433h5.906s3.937,1.869,1.732,5.473a11.166,11.166,0,0,1-9.133,5.293c-6.87.062-9.6,4.037-13.463,3.368-4.133-.714-3.917-2.971-3.681-3.936A11.214,11.214,0,0,1,78,440.085a44.446,44.446,0,0,0,0-5.766c-3.641-.117-6-3.367-6-3.367a34.82,34.82,0,0,0,1.2-6.491c0-2.167,3.188-21.868,2.991-23.072s.138-17.635.138-17.635-1.515-12.559-3.68-16.81c-.886-1.711-1.871-1.4-1.871-1.4s-2.421,8.4-2.421,9.841c0,1.457-1.811,8.423-2.539,11.318-.708,2.871-1.4,3.76-1.948,6.732-.512,2.832-1.359,14.719-1.359,14.719L63,422.727a1.473,1.473,0,0,1,1.083.018,2.9,2.9,0,0,1,1.83,1.833,7.227,7.227,0,0,1,0,2.4,12.076,12.076,0,0,1-2.637,4.37c-1.673,1.693-2.6,4.154-3.8,4.727-.472,1.2-1.93,4.012-1.93,4.012s-4.231,1.932-6.159-.332c-.689-.79.217-3.623-.788-5.824a10.985,10.985,0,0,1,.059-8.347s-.866-19.076,0-25.493c.866-6.435,2.322-18.679,2.322-21.569s-1.16-15.966-.924-17.639c.256-1.671.924-6.651.924-6.651l1.24-8.761a47.53,47.53,0,0,1-5.689-3.383l.376-23.564-5.335-12.871c-.491-.315-.964-.631-1.436-.945a51.915,51.915,0,0,1-4.372-3.741c-4.723-4.013-7.834-7.754-8.719-10.274a68.756,68.756,0,0,1-2.676-12.065,11.932,11.932,0,0,1,.965-1.773,4.141,4.141,0,0,1-.317-3.5,9.392,9.392,0,0,0,.474-4l.944-2.282a13.054,13.054,0,0,0,.3-2.932c-.138-.945,1.75-.63,1.79,1.023a7.874,7.874,0,0,1-.629,3.091l-.059.984a4.215,4.215,0,0,1,1.043,2.441,7.848,7.848,0,0,0,.177,2.046s3.229,7.577,5.63,10.944l9.841-1.359,5.844-1.437,1.182.275a3.231,3.231,0,0,0,.69-3.445,16.654,16.654,0,0,0-2.205-4.488,5.841,5.841,0,0,1-.394.668c-1.534,0-2.322-3.482-1.712-.549-4.33-1.653-3.9-4.961-3.8-6.674a2.441,2.441,0,0,1-2.283-2.871,1.037,1.037,0,0,0,1.378.1c-.491-.808-1.652-1.278-1.081-2.656.669-1.713-.965-1.3-1.4-1.123a11.556,11.556,0,0,0,1.536-6.986c3.07-.275,1.811-3.307,2.755-4.941.315.709,1.064,1.239,1.594.887.769-3.975,5.2-6.2,8.111-6.378-.709.649.492,1.671,1.042,1.889.592.217,3.623.886,2.658-.963,3.366,2.026,6.358.354,6.535-.2.236,3.5,2.539,3.364,2.893,2.951.571,3.583,2.7,2.127,2.716,1.713,1.417.886.237,2.362.02,3.74a10.178,10.178,0,0,1-3.74,3.15l.689,5.488,3.031,4.51-3.031,2.361a38.714,38.714,0,0,0,2.363,5.629c.924,1.457-6.417,5.769-6.417,5.769s-.827,2.99.138,4.921l6,.963,13.17,2.481,7.361,3.541,7.618,2.283,2.1.082,3.032.159,3.581-.317s3.347-1.633,4.49-1.633,5.628-2.677,5.628-2.677l17.1-13.463,1.3-1.4a7.948,7.948,0,0,1,0-6.026,9.413,9.413,0,0,0-.492-3.759c-.649-1.555-1.536-3.345-.315-4.073,0,0,2.2-.985,2.362,2.362s2.7,6.77,4.487,3.01c1.792-3.74,2.027-5.078,2.027-5.51,0-.453,1.024-1.143,1.319-.906v2.618s.709.12.67.689A1.716,1.716,0,0,1,146.968,263.824Z" transform="translate(0 -51.78)" fill="#5b2e18"/>
    <g id="Group_18" data-name="Group 18" transform="translate(214.253 201.856)">
      <path id="Path_106" data-name="Path 106" d="M439.079,366.9c-1.128,3.161-1.466,3.611-4.624,4.291-5.755,1.015-18.395.788-23.358-.227-2.709-.676-3.046-1.469-4.175-4.4-3.95-9.814-5.417-38.7-2.257-48.744.45-1.24,1.015-1.919,2.143-2.032a151.99,151.99,0,0,1,32.16,0c2.03.225,2.257.9,2.705,2.368C444.835,328.31,443.143,355.729,439.079,366.9Zm-8.236-43.329a39.053,39.053,0,0,0-14.1-.223c-2.144.337-2.709,1.352-3.274,3.157-2.257,7.787-2.257,26.628.226,34.419.566,1.8,1.466,2.256,3.948,2.594a33.822,33.822,0,0,0,11.171.111c2.257-.338,2.822-1.354,3.5-3.271,2.709-7.784,2.822-23.808,1.014-33.175C432.762,324.36,431.972,323.8,430.843,323.571Z" transform="translate(-402.948 -289.333)" fill="#5b2e18"/>
      <path id="Path_107" data-name="Path 107" d="M512.09,345.866h-5.078c-.9,0-1.015-.224-1.242-.9-1.918-4.852-3.723-10.61-3.836-16.247-.34-18.847-1.015-42.542-1.015-61.723a1.108,1.108,0,0,1,.789-1.242c.564-.227,8.574-1.693,9.14-1.807.338,0,.9,0,.9.793,0,.336-1.469,49.2-1.469,49.2-.11,4.74-.449,11.056-.11,16.246a54.561,54.561,0,0,0,2.821,14.669C513.219,345.643,513.219,345.866,512.09,345.866Z" transform="translate(-452.039 -263.785)" fill="#5b2e18"/>
      <path id="Path_108" data-name="Path 108" d="M574.7,370.929a172.623,172.623,0,0,1-34.188.112c-2.256-.227-3.159-.788-3.386-2.257-1.58-11.056,0-29.451,1.693-34.078.339-.9.79-1.692,4.4-2.257,6.659-.9,16.136-.9,25.164-.224-.564-5.192-1.355-7.787-3.274-8.35-3.383-.9-15.8-1.579-24.258-1.579-.791,0-1.017-.453-.791-1.129.453-1.806.678-3.61,1.016-4.966.113-.451.452-.79,1.355-.9,4.4-.339,27.306-1.016,30.577.563.792.338,1.243,1.017,1.806,2.483,3.383,9.367,4.062,42.2,2.818,50.213C577.295,370.814,576.733,370.7,574.7,370.929Zm-5.638-31.48a90.4,90.4,0,0,0-21.329,1.465,2.042,2.042,0,0,0-1.58,1.241c-1.239,2.6-1.918,13.318-1.464,16.7.225,2.373.788,2.934,3.158,3.952,2.6,1.239,13.2,1.465,20.423.224.9-.111.792-.338.792-.79C569.4,355.695,569.964,348.585,569.062,339.448Z" transform="translate(-469.856 -289.299)" fill="#5b2e18"/>
      <path id="Path_109" data-name="Path 109" d="M654.179,321.388a22.222,22.222,0,0,0-7.333,6.318c-2.482,3.047-2.933,11.964-2.933,15.458l-.339,26.746a.986.986,0,0,1-1.016,1.127H636.69c-.677,0-.79-.339-.79-1.016,0-12.414.339-25.051-1.353-38.025a120.764,120.764,0,0,0-3.159-12.977c-.115-.564.224-.9.789-1.242.678-.337,5.417-2.708,5.758-2.932a.905.905,0,0,1,1.465.338,33.11,33.11,0,0,1,1.58,4.288c3.837-2.145,8.349-4.514,10.945-5.19,1.128-.227,1.354-.116,1.466.676.225,1.127.789,2.707,1.352,5.528C654.857,321.05,654.632,321.162,654.179,321.388Z" transform="translate(-517.403 -288.956)" fill="#5b2e18"/>
      <path id="Path_110" data-name="Path 110" d="M844.115,346.07c-.564,2.481-1.694,3.613-3.726,3.95-6.656,1.242-15.909,1.354-24.258,1.581a26.974,26.974,0,0,0,2.256,8.572c.789,1.356,1.919,1.919,3.95,2.485,4.4,1.24,13.315,1.468,20.084,1.579.566,0,1.131.112,1.016.9-.45,1.581-1.016,3.385-1.581,5.528-.225.678-.337.678-1.353.678-8.688.564-20.31.453-25.162-.224-2.37-.228-2.71-.566-3.838-2.823-5.3-11.283-6.2-37.01-2.933-49.2.565-2.256.9-3.047,3.5-3.5,7.221-1.13,23.469-1.13,30.239.338,1.468.339,2.146,1.129,2.484,2.822C846.483,326.1,846.034,337.269,844.115,346.07Zm-8.124-20.311c-.339-1.128-.453-2.143-1.806-2.48-3.273-.794-9.252-.455-13.2.337-2.595.564-3.27,1.015-3.836,3.271a85.179,85.179,0,0,0-1.693,17.152c6.432.226,17.153-.678,19.747-1.692a2.669,2.669,0,0,0,1.692-2.031C837.908,336.143,836.781,327.791,835.991,325.76Z" transform="translate(-605.24 -289.266)" fill="#5b2e18"/>
      <path id="Path_111" data-name="Path 111" d="M938.955,344.242c-.336,1.126-2.479,1.241-3.384,1.241a171.665,171.665,0,0,1-27.533-.337,2.406,2.406,0,0,1-2.483-1.92c-4.4-12.074-5.867-38.14-4.512-50.1.339-2.594,1.917-3.27,3.838-3.5,9.024-.9,16.81-.565,26.738-.113.115-8.8-.109-21.213,0-22.907.115-.9.343-1.24,1.018-1.354,1.692-.45,5.19-1.242,7.222-1.579.791-.113.9-.113.9.9C940.873,275.3,940.65,338.486,938.955,344.242Zm-24.711-45.926c-2.029.565-2.371,1.127-3.045,3.159-1.581,5.642-1.467,25.051.336,31.823.681,2.483,1.018,2.932,3.613,3.609,4.289,1.014,9.7,1.13,15.235.787a359.006,359.006,0,0,0,.9-39.829C925.078,297.3,918.534,297.3,914.244,298.316Z" transform="translate(-652.289 -263.625)" fill="#5b2e18"/>
      <path id="Path_112" data-name="Path 112" d="M1036.912,370.006c0,1.238-.677,1.238-1.694,1.354a194.211,194.211,0,0,1-26.967-.227c-1.016,0-1.693-.338-2.368-1.807-2.371-5.868-7.787-34.414-9.141-52.808,0-.678.113-1.128,1.355-1.128h8.35c.789,0,1.013.564,1.013,1.128-.448,8.125,2.485,39.044,4.516,44.346.563,1.579.451,2.146,2.369,2.367,1.128.227,10.606.9,14.444,0,.45-.11.45-.221.45-.449l.114-46.375c0-.793.451-1.017,1.129-1.017h6.432c.79,0,1.128.34,1.128,1.017C1037.814,333.671,1038.154,352.289,1036.912,370.006Z" transform="translate(-700.485 -289.564)" fill="#5b2e18"/>
      <path id="Path_113" data-name="Path 113" d="M1160.917,370.429c0,.565-.229,1.131-1.018,1.016h-5.752s-.9,0-.9-.789c0-.564-1.015-32.723-3.724-42.653a3.685,3.685,0,0,0-3.274-3.044c-2.368-.567-10.606-1.131-12.864-.679-.112,3.385-.112,45.361-.112,46.15s-.338,1.016-.787,1.016H1126.5c-.564,0-.789-.224-.789-.9-.113-.789-1.24-27.868-2.595-41.864-.225-1.8-.338-3.5-2.029-4.061-2.709-.79-11.51-.9-14.446-.9-.112,3.5-1.468,46.6-1.468,46.941-.111.451-.337.9-.9.789H1098.4c-.565,0-.678-.339-.678-.789.113-14.443-.677-40.17-1.014-53.71,0-1.355.111-1.355,1.465-1.469,14.106-.788,49.2-.677,58.112.79,2.257.453,3.047,1.016,3.61,3.16.565,2.37,1.129,13.088,1.129,13.88C1161.592,345.378,1160.917,369.981,1160.917,370.429Z" transform="translate(-750.578 -289.364)" fill="#5b2e18"/>
    </g>
    <g id="Group_19" data-name="Group 19" transform="translate(627.524 229.484)">
      <path id="Path_114" data-name="Path 114" d="M1236.947,330.174a5.587,5.587,0,1,1,5.675-5.6A5.612,5.612,0,0,1,1236.947,330.174Zm0-9.665a4.1,4.1,0,1,0,4.167,4.1A4.141,4.141,0,0,0,1236.947,320.51Zm.877,6.9-1.226-1.332-.385.034-.07,1.3h-1.121c-.035-1.75,0-3.713,0-5.534a11.722,11.722,0,0,1,3.328,0c.314.067.488.14.6.455a7.392,7.392,0,0,1,.139,2.906.509.509,0,0,1-.281.315,4.6,4.6,0,0,1-.911.281c.175.245.349.457.526.666.174.244.385.49.7.912Zm-.07-4.132c-.071-.141.035-.141-.175-.21a2.8,2.8,0,0,0-1.228.033c-.034.666-.1,1.4-.1,1.858a4.156,4.156,0,0,0,1.3-.143c.139-.035.21-.035.245-.209A4.286,4.286,0,0,0,1237.754,323.277Z" transform="translate(-1231.276 -319.002)" fill="#5b2e18"/>
    </g>
  </g>
</svg>
